<?xml version="1.0" standalone="no"?>
<!DOCTYPE svg PUBLIC "-//W3C//DTD SVG 20010904//EN"
 "http://www.w3.org/TR/2001/REC-SVG-20010904/DTD/svg10.dtd">
<svg version="1.0" xmlns="http://www.w3.org/2000/svg"
 width="1200.000000pt" height="1200.000000pt" viewBox="0 0 1200.000000 1200.000000"
 preserveAspectRatio="xMidYMid meet">
<metadata>
Created by potrace 1.14, written by Peter Selinger 2001-2017
</metadata>
<g transform="translate(0.000000,1200.000000) scale(0.100000,-0.100000)"
fill="#000000" stroke="none">
<path d="M7347 9934 c-1 -1 -46 -4 -99 -8 -53 -3 -103 -8 -110 -10 -7 -3 -33
-7 -58 -10 -99 -10 -330 -75 -440 -123 -267 -117 -446 -237 -636 -427 -316
-315 -491 -680 -549 -1146 -6 -52 -7 -313 -1 -350 2 -14 7 -52 11 -85 20 -177
84 -383 176 -570 53 -108 52 -105 121 -210 134 -205 330 -400 548 -545 158
-106 411 -218 595 -264 68 -17 84 -20 215 -42 101 -17 391 -23 490 -10 212 27
343 60 550 138 116 43 315 157 435 247 101 77 107 82 215 191 231 232 400 520
481 820 7 25 14 50 15 55 34 125 49 271 48 460 0 200 -8 258 -56 450 -17 66
-34 124 -39 130 -5 5 -9 17 -9 26 0 21 -86 213 -132 294 -265 467 -717 805
-1248 933 -47 12 -105 24 -130 27 -25 4 -56 9 -70 11 -52 9 -316 23 -323 18z
m268 -519 c512 -84 926 -401 1117 -855 46 -109 54 -135 82 -269 21 -96 24
-134 21 -274 -3 -180 -4 -186 -33 -309 -104 -431 -416 -792 -837 -968 -78 -32
-219 -75 -280 -85 -16 -3 -55 -9 -85 -14 -59 -10 -378 -8 -420 3 -14 3 -50 11
-80 17 -71 13 -192 50 -205 61 -5 4 -16 8 -24 8 -41 0 -289 141 -386 220 -36
30 -192 186 -219 220 -36 45 -132 195 -154 241 -60 126 -117 298 -128 389 -1
14 -5 44 -9 67 -12 75 -11 225 2 328 37 306 172 583 393 805 41 42 93 89 114
105 21 17 44 35 50 40 24 23 150 97 228 135 144 71 318 122 458 137 30 3 57 7
59 9 6 5 292 -4 336 -11z"/>
<path d="M232 9830 c-32 -13 -38 -38 -18 -75 21 -38 79 -67 176 -89 482 -109
1285 -507 2005 -995 132 -89 384 -268 395 -280 3 -4 23 -18 45 -33 22 -15 52
-38 67 -50 14 -13 39 -32 54 -43 79 -57 553 -441 574 -464 3 -3 32 -28 65 -56
33 -27 62 -52 65 -55 3 -3 43 -39 90 -80 47 -41 92 -81 101 -90 9 -8 58 -53
110 -100 52 -47 132 -121 179 -165 129 -120 693 -688 790 -794 47 -52 99 -108
115 -125 36 -38 104 -113 205 -225 41 -46 80 -89 85 -95 6 -6 50 -56 99 -111
132 -148 224 -251 287 -319 31 -34 74 -81 97 -106 38 -41 44 -60 22 -60 -9 0
-286 -107 -335 -129 -11 -5 -108 -46 -215 -92 -170 -71 -336 -146 -655 -294
-44 -20 -208 -101 -365 -179 -261 -131 -379 -191 -515 -266 -27 -15 -77 -42
-110 -60 -469 -254 -939 -534 -1387 -827 -53 -35 -100 -63 -103 -63 -4 0 6 17
22 37 146 193 346 591 488 973 37 101 112 317 119 345 2 6 6 17 9 25 20 53
159 579 173 655 2 11 15 76 30 145 35 172 72 376 99 555 3 22 10 67 15 100 5
33 11 83 15 110 3 28 8 57 10 65 2 8 6 38 10 65 9 70 15 111 25 175 5 30 12
73 15 95 4 22 8 51 10 65 3 14 7 43 10 65 14 89 16 101 20 125 3 14 7 43 10
65 6 49 25 192 30 225 30 202 20 370 -25 398 -39 24 -61 -4 -98 -128 -16 -54
-88 -371 -106 -470 -2 -14 -14 -70 -25 -125 -11 -55 -22 -111 -25 -125 -2 -14
-9 -47 -15 -75 -6 -27 -13 -61 -15 -75 -51 -284 -204 -942 -276 -1185 -12 -38
-23 -74 -24 -80 -2 -5 -5 -17 -8 -25 -3 -8 -22 -69 -44 -135 -76 -239 -192
-551 -264 -710 -67 -151 -167 -355 -214 -440 -13 -22 -38 -67 -56 -100 -18
-33 -41 -72 -51 -87 -11 -14 -19 -29 -19 -32 0 -4 -8 -19 -19 -34 -10 -15 -35
-54 -56 -87 -108 -171 -406 -593 -434 -615 -4 -3 -18 -21 -31 -40 -13 -19 -27
-37 -31 -40 -18 -14 -292 -386 -334 -455 -58 -93 -95 -193 -88 -239 2 -17 16
-50 29 -73 93 -161 255 -174 444 -37 122 89 569 374 586 374 3 0 17 8 32 19
57 39 564 332 747 431 95 51 157 85 245 133 204 112 876 452 1080 547 227 105
325 149 490 222 74 32 149 65 165 73 152 69 635 261 910 362 216 79 621 213
644 213 11 0 24 -6 28 -14 4 -8 51 -60 103 -117 52 -56 103 -111 113 -123 10
-11 55 -61 100 -110 45 -50 102 -113 127 -140 25 -28 50 -55 55 -62 6 -6 39
-44 75 -84 36 -40 70 -78 75 -84 12 -12 120 -142 139 -166 286 -371 339 -436
425 -519 139 -134 257 -176 393 -141 94 24 180 136 224 290 38 132 95 390 118
533 3 15 7 35 10 45 3 9 7 28 10 42 2 14 10 48 16 75 6 28 13 58 15 69 36 171
183 644 281 901 l37 95 281 -4 c154 -3 297 -7 316 -10 19 -2 71 -7 115 -11 44
-3 87 -8 95 -10 8 -2 35 -6 60 -9 25 -3 55 -8 66 -10 12 -2 39 -7 60 -10 253
-41 490 -164 540 -281 24 -56 28 -206 8 -276 -31 -107 -102 -196 -209 -264
-68 -43 -104 -56 -371 -135 -127 -37 -245 -75 -262 -84 -17 -9 -47 -36 -67
-60 -31 -39 -37 -53 -42 -114 -5 -60 -2 -76 20 -125 27 -60 88 -125 151 -162
43 -25 191 -88 471 -201 386 -155 544 -256 619 -395 41 -74 54 -139 44 -221
-20 -163 -126 -297 -318 -401 -58 -31 -189 -83 -230 -92 -8 -2 -33 -8 -55 -14
-131 -35 -369 -49 -510 -29 -75 10 -268 56 -350 83 -269 89 -447 195 -653 388
-46 43 -95 82 -109 88 -32 12 -71 2 -78 -21 -23 -72 205 -342 387 -461 184
-119 571 -264 823 -308 153 -27 196 -31 330 -33 227 -2 404 36 582 126 234
117 448 373 508 605 63 244 -36 492 -287 716 -107 96 -284 212 -438 287 -71
35 -129 65 -129 68 -1 3 21 15 47 27 113 54 278 177 385 286 224 228 315 482
272 752 -59 366 -315 623 -770 773 -110 37 -292 82 -389 98 -21 3 -48 8 -60
10 -11 2 -43 7 -71 10 -27 4 -53 8 -56 10 -3 1 -37 6 -75 9 -38 3 -76 8 -84
10 -8 2 -51 7 -95 11 -44 4 -91 8 -105 9 -14 2 -42 3 -62 4 -41 1 -41 -1 -5
81 180 414 566 1020 887 1394 191 224 394 428 645 651 50 44 92 82 95 85 3 3
34 30 70 60 36 30 67 57 70 60 5 5 140 116 183 150 11 8 24 20 31 25 131 115
359 277 561 398 216 129 251 165 228 233 -12 37 -38 44 -101 28 -77 -20 -292
-128 -427 -214 -13 -8 -44 -28 -70 -44 -293 -178 -910 -623 -1115 -804 -83
-73 -365 -355 -449 -447 -29 -33 -70 -78 -90 -100 -31 -34 -105 -120 -163
-190 -9 -11 -43 -52 -75 -90 -182 -219 -583 -772 -583 -805 0 -5 -3 -10 -8
-12 -9 -4 -123 -187 -212 -340 -34 -59 -69 -109 -78 -112 -10 -3 -66 -8 -127
-11 -60 -3 -123 -8 -140 -10 -16 -2 -70 -7 -120 -10 -49 -3 -101 -8 -115 -10
-14 -2 -56 -7 -95 -10 -38 -4 -83 -8 -100 -10 -29 -4 -84 -10 -175 -21 -69 -8
-260 -34 -355 -49 -107 -16 -328 -57 -430 -80 l-120 -26 -68 73 c-189 202
-725 733 -956 948 -57 52 -115 106 -130 120 -14 14 -66 61 -115 105 -49 44
-98 89 -110 100 -12 11 -64 58 -116 104 -52 46 -111 98 -130 115 -19 17 -62
54 -95 81 -73 61 -114 97 -129 111 -57 54 -564 460 -711 569 -44 33 -84 63
-90 68 -18 14 -192 141 -251 182 -32 22 -98 69 -148 104 -108 75 -471 315
-539 357 -27 16 -63 38 -81 49 -505 315 -1152 647 -1601 821 -149 57 -426 150
-510 170 -5 1 -61 16 -122 34 -236 66 -449 95 -511 70z m7845 -4672 c-3 -7
-26 -60 -52 -118 -26 -58 -51 -114 -55 -125 -4 -11 -16 -37 -25 -58 -43 -99
-104 -276 -144 -421 l-28 -100 -25 30 c-22 25 -61 70 -127 149 -19 23 -161
185 -176 201 -5 6 -39 44 -75 84 -36 40 -91 100 -122 134 -62 66 -70 86 -35
87 12 0 29 2 37 4 8 2 56 12 105 23 50 11 106 23 125 26 19 3 58 10 85 15 58
12 67 14 240 42 72 11 148 24 170 28 74 13 108 13 102 -1z"/>
</g>
</svg>
